<svg version="1.1" xmlns="http://www.w3.org/2000/svg" xmlns:xlink="http://www.w3.org/1999/xlink" x="0px" y="0px" viewBox="0 0 32 32" xml:space="preserve" width="32" height="32"><g class="nc-icon-wrapper" fill="#444444"> <path d="M32,14.268a14.25,14.25,0,0,1-.9,5.158c-1.12,2.9-3.281,5-6.369,5A4.419,4.419,0,0,1,20.556,21.9a8.126,8.126,0,0,1-5.7,2.525,7.216,7.216,0,0,1-5.468-2.085c-2.679-2.8-2.9-8.965.627-12.359,2.869-2.758,6.624-2.831,10.572-2.2a20.378,20.378,0,0,1,3.342.773l-.451,9.57q0,2.719,1.489,2.72,1.254,0,2-1.83a12.884,12.884,0,0,0,.745-4.785A11.487,11.487,0,0,0,26.4,8.661C24.559,5.281,21.144,3.7,17.264,3.7a13.916,13.916,0,0,0-6.878,1.624C6.175,7.668,4.35,12.185,4.35,17.087q0,5.4,2.891,8.287c4.208,4.206,12.261,3.131,17.842,1.086v3.758A23.591,23.591,0,0,1,15.775,32Q8.328,32,4.164,28.085T0,17.2C0,11.053,2.7,5.365,8.182,2.241A17.937,17.937,0,0,1,17.225,0c5.334,0,10.3,2.132,12.933,6.771A14.944,14.944,0,0,1,32,14.268ZM11.934,16.715q0,4.13,3.37,4.129c2.861,0,3.6-2.424,3.8-5.285l.255-4.324a10.679,10.679,0,0,0-2.254-.217C13.683,11.018,11.934,13.357,11.934,16.715Z" fill="#444444"></path> </g></svg>
