<svg version="1.1" xmlns="http://www.w3.org/2000/svg" xmlns:xlink="http://www.w3.org/1999/xlink" x="0px" y="0px" viewBox="0 0 48 48" xml:space="preserve" width="48" height="48"><g class="nc-icon-wrapper" fill="#d1d8db"><path fill="#d1d8db" d="M24,1C11.318,1,1,11.318,1,24s10.318,23,23,23s23-10.318,23-23S36.682,1,24,1z M24,5 c4.519,0,8.67,1.592,11.935,4.237L9.237,35.935C6.592,32.67,5,28.519,5,24C5,13.523,13.523,5,24,5z M24,43 c-4.519,0-8.67-1.592-11.935-4.237l26.698-26.698C41.408,15.33,43,19.481,43,24C43,34.477,34.477,43,24,43z"></path></g></svg>