<svg version="1.1" xmlns="http://www.w3.org/2000/svg" xmlns:xlink="http://www.w3.org/1999/xlink" x="0px" y="0px" viewBox="0 0 64 64" xml:space="preserve" width="64" height="64"><g class="nc-icon-wrapper" fill="#48545d"><path data-color="color-2" fill="#48545d" d="M52.785,33.62c-0.165,0.209-0.406,0.344-0.671,0.374C52.076,33.998,52.038,34,52,34 c-0.226,0-0.447-0.077-0.625-0.219l-4.055-3.244C46.036,32.042,44.129,33,42,33c-2.274,0-4.292-1.095-5.572-2.78l-4.67,5.432 c-0.188,0.218-0.459,0.345-0.747,0.348c-0.285-0.012-0.562-0.117-0.754-0.331l-8.174-9.083l-7.274,10.002 c-0.172,0.236-0.439,0.386-0.73,0.409c-0.289,0.022-0.579-0.083-0.785-0.29L9,32.414l-8,8V57c0,1.105,0.895,2,2,2h38V36h2v23h18 c1.105,0,2-0.895,2-2V20.68L52.785,33.62z"></path> <path fill="#48545d" d="M43,19.08c3.387,0.488,6,3.401,6,6.92c0,1.01-0.219,1.967-0.605,2.835l3.444,2.755L63,17.453V7 c0-1.105-0.895-2-2-2H43V19.08z"></path> <path fill="#48545d" d="M8.293,30.293c0.39-0.39,1.024-0.39,1.414,0l4.172,4.172l7.312-10.054c0.177-0.244,0.456-0.395,0.757-0.41 c0.296-0.02,0.594,0.105,0.795,0.33l8.24,9.155l4.427-5.149C35.149,27.605,35,26.82,35,26c0-3.519,2.613-6.432,6-6.92V5H3 C1.895,5,1,5.895,1,7v30.586L8.293,30.293z"></path></g></svg>
