<svg version="1.1" xmlns="http://www.w3.org/2000/svg" xmlns:xlink="http://www.w3.org/1999/xlink" x="0px" y="0px" viewBox="0 0 64 64" xml:space="preserve" width="64" height="64"><g class="nc-icon-wrapper" fill="#48545d"><path data-cap="butt" data-color="color-2" fill="none" stroke="#48545d" stroke-width="2" stroke-miterlimit="10" d="M14.1149168,26H12 c-4.4182782,0-8-3.5817223-8-8V8h10" stroke-linejoin="miter" stroke-linecap="butt"></path> <path data-cap="butt" data-color="color-2" fill="none" stroke="#48545d" stroke-width="2" stroke-miterlimit="10" d="M49.8850822,26H52 c4.4182777,0,8-3.5817223,8-8V8H50" stroke-linejoin="miter" stroke-linecap="butt"></path> <line data-color="color-2" fill="none" stroke="#48545d" stroke-width="2" stroke-linecap="square" stroke-miterlimit="10" x1="32" y1="52" x2="32.0000191" y2="42" stroke-linejoin="miter"></line> <path fill="none" stroke="#48545d" stroke-width="2" stroke-linecap="square" stroke-miterlimit="10" d="M32.0000191,42h-0.0000362 C22.0588665,42,14,33.9411354,14,24.0000172V4h36v20.0000172C50,33.9411354,41.9411354,42,32.0000191,42z" stroke-linejoin="miter"></path> <path fill="none" stroke="#48545d" stroke-width="2" stroke-linecap="square" stroke-miterlimit="10" d="M46,60H18v-0.0000076 C18,55.5817184,21.5817184,52,25.9999924,52h12.0000153C42.4182816,52,46,55.5817184,46,59.9999924V60z" stroke-linejoin="miter"></path></g></svg>
