<?xml version="1.0" encoding="utf-8"?>
<!-- Generator: Adobe Illustrator 16.0.0, SVG Export Plug-In . SVG Version: 6.00 Build 0)  -->
<!DOCTYPE svg PUBLIC "-//W3C//DTD SVG 1.1//EN" "http://www.w3.org/Graphics/SVG/1.1/DTD/svg11.dtd">
<svg version="1.1" id="Layer_1" xmlns="http://www.w3.org/2000/svg" xmlns:xlink="http://www.w3.org/1999/xlink" x="0px" y="0px"
	 width="1400px" height="980px" viewBox="0 0 1400 980" enable-background="new 0 0 1400 980" xml:space="preserve">
<g>
	<g>
		<polygon fill="#253858" points="0,0 0,735.5 0,980 1400,980 1400,735.5 1400,0 		"/>
	</g>
	<g>
		<g>
			<path stroke='#fff' fill='#fff' d="M394.1,394c-16.2,0-31.5-6.3-43-17.8c-23.7-23.7-23.7-62.3,0-86c11.5-11.5,26.8-17.8,43-17.8c0,0,0,0,0,0
				c16.3,0,31.5,6.3,43,17.8c11.5,11.5,17.8,26.8,17.8,43c0,16.2-6.3,31.5-17.8,43C425.6,387.7,410.4,394,394.1,394z M394.1,275.9
				c-15.3,0-29.6,6-40.5,16.8c-22.3,22.3-22.3,58.6,0,80.9c10.8,10.8,25.2,16.8,40.5,16.8c15.3,0,29.6-6,40.5-16.8
				c10.8-10.8,16.8-25.2,16.8-40.5c0-15.3-6-29.6-16.8-40.5C423.8,281.9,409.4,275.9,394.1,275.9z"/>
		</g>
		<g>
			<path stroke='#fff' fill='#fff' d="M394.1,376.6c-11.6,0-22.5-4.5-30.7-12.7c-10.5-10.5-14.9-25.6-11.7-40.1c0.2-1,1.2-1.6,2.2-1.4c1,0.2,1.6,1.2,1.4,2.2
				c-3,13.4,1.1,27.1,10.7,36.8c7.5,7.5,17.5,11.7,28.2,11.7c10.6,0,20.6-4.1,28.2-11.7c0.7-0.7,1.9-0.7,2.6,0
				c0.7,0.7,0.7,1.9,0,2.6C416.6,372.1,405.7,376.6,394.1,376.6z"/>
		</g>
		<g>
			<path stroke='#fff' fill='#fff' d="M404.1,276.8c-0.2,0-0.4,0-0.6-0.1c-0.9-0.3-1.4-1.4-1.1-2.3L476.9,65c0.3-0.9,1.4-1.4,2.3-1.1c0.9,0.3,1.4,1.4,1.1,2.3
				l-74.5,209.4C405.5,276.4,404.8,276.8,404.1,276.8z"/>
		</g>
		<g>
			<path stroke='#fff' fill='#fff' d="M424.7,284.5c-0.3,0-0.6-0.1-0.9-0.2c-0.9-0.5-1.2-1.6-0.7-2.5l81.7-145.3c0.5-0.9,1.6-1.2,2.5-0.7
				c0.9,0.5,1.2,1.6,0.7,2.5l-81.7,145.3C425.9,284.2,425.3,284.5,424.7,284.5z"/>
		</g>
		<g>
			<path stroke='#fff' fill='#fff' d="M452.3,325c-0.7,0-1.4-0.5-1.7-1.2c-0.3-0.9,0.2-2,1.1-2.3L661.1,247c0.9-0.3,2,0.2,2.3,1.1c0.3,0.9-0.2,2-1.1,2.3
				l-209.4,74.5C452.7,325,452.5,325,452.3,325z"/>
		</g>
		<g>
			<path stroke='#fff' fill='#fff' d="M444.6,304.4c-0.6,0-1.2-0.3-1.6-0.9c-0.5-0.9-0.2-2,0.7-2.5L589,219.3c0.9-0.5,2-0.2,2.5,0.7c0.5,0.9,0.2,2-0.7,2.5
				l-145.3,81.7C445.2,304.4,444.9,304.4,444.6,304.4z"/>
		</g>
	</g>
	<g>
		<path stroke='#fff' fill='#fff' d="M1130.4,737.3h-84c-0.5,0-1-0.2-1.3-0.6c-0.3-0.4-0.5-0.9-0.5-1.4c0.3-3.2,0.5-6.4,0.5-9.5c0-53-43.1-96.2-96.2-96.2
			c-15.9,0-31.7,4-45.7,11.5c-0.4,0.2-1,0.3-1.4,0.1c-0.5-0.2-0.9-0.5-1.1-1c-20.9-45.3-66.5-74.5-116.2-74.5
			c-27.1,0-53.2,8.5-75.3,24.6c-0.4,0.3-1,0.4-1.5,0.3c-0.5-0.1-0.9-0.5-1.2-0.9c-27.5-52.3-81.3-84.8-140.3-84.8
			c-87.4,0-158.5,71.1-158.5,158.5c0,5.6,0.3,11.4,1,17.7c0.1,0.6-0.2,1.2-0.6,1.5c-0.4,0.4-1,0.5-1.6,0.4
			c-44.5-9.8-89,13.2-107.7,53.1c-0.3,0.6-0.9,1-1.6,1H180.2c-1,0-1.8-0.8-1.8-1.8s0.8-1.8,1.8-1.8h116.1
			c19.3-40,63.8-63.3,108.8-54.5c-0.5-5.5-0.8-10.7-0.8-15.6c0-89.4,72.7-162.1,162.1-162.1c59.6,0,114.1,32.5,142.5,84.9
			c22.4-15.8,48.5-24.1,75.7-24.1c50.5,0,96.9,29.3,118.7,74.9c14-7.3,29.8-11.1,45.7-11.1c55,0,99.8,44.8,99.8,99.8
			c0,2.5-0.1,5.2-0.3,7.8h82c1,0,1.8,0.8,1.8,1.8S1131.4,737.3,1130.4,737.3z"/>
	</g>
	<g>
		<rect x="608.1" y="377.6" fill="#253858" width="183.8" height="35.1"/>
		<path stroke='#fff' fill='#fff' d="M791.9,414.5H608.1c-1,0-1.8-0.8-1.8-1.8v-35.1c0-1,0.8-1.8,1.8-1.8h183.8c1,0,1.8,0.8,1.8,1.8v35.1
			C793.7,413.7,792.9,414.5,791.9,414.5z M609.9,410.9h180.1v-31.4H609.9V410.9z"/>
	</g>
	<g>
		<polygon fill="#253858" points="608.1,771.8 700,771.8 791.9,771.8 791.9,412.7 608.1,412.7 		"/>
		<path stroke='#fff' fill='#fff' d="M791.9,773.6H608.1c-1,0-1.8-0.8-1.8-1.8V412.7c0-1,0.8-1.8,1.8-1.8h183.8c1,0,1.8,0.8,1.8,1.8v359.1
			C793.7,772.8,792.9,773.6,791.9,773.6z M609.9,770h180.1V414.5H609.9V770z"/>
	</g>
	<g>
		<path stroke='#fff' fill='#fff' fill="#253858" d="M791.9,319.6c0-108.8-91.9-176.5-91.9-176.5s-91.9,67.7-91.9,176.5v58h183.8V319.6z"/>
		<path stroke='#fff' fill='#fff' d="M791.9,379.5H608.1c-1,0-1.8-0.8-1.8-1.8v-58c0-108.5,91.7-177.3,92.6-178c0.6-0.5,1.5-0.5,2.2,0
			c0.9,0.7,92.6,69.5,92.6,178v58C793.7,378.6,792.9,379.5,791.9,379.5z M609.9,375.8h180.1v-56.2c0-100.3-79.8-166.2-90.1-174.2
			c-10.3,8.1-90.1,74-90.1,174.2V375.8z"/>
	</g>
	<g>
		<path stroke='#fff' fill='#fff' d="M859.6,379.5H579.1c-1,0-1.8-0.8-1.8-1.8c0-1,0.8-1.8,1.8-1.8h280.5c1,0,1.8,0.8,1.8,1.8
			C861.4,378.6,860.6,379.5,859.6,379.5z"/>
	</g>
	<g>
		<path stroke='#fff' fill='#fff' d="M823.3,414.5H545.2c-1,0-1.8-0.8-1.8-1.8c0-1,0.8-1.8,1.8-1.8h278.1c1,0,1.8,0.8,1.8,1.8
			C825.1,413.7,824.3,414.5,823.3,414.5z"/>
	</g>
	<g>
		<path stroke='#fff' fill='#fff' fill="#253858" d="M751.4,299.4c0,28.4-23,51.4-51.4,51.4c-28.4,0-51.4-23-51.4-51.4c0-28.4,23-51.4,51.4-51.4
			C728.4,248,751.4,271,751.4,299.4z"/>
		<path stroke='#fff' fill='#fff' d="M700,352.7c-29.4,0-53.3-23.9-53.3-53.3s23.9-53.3,53.3-53.3s53.3,23.9,53.3,53.3S729.4,352.7,700,352.7z M700,249.8
			c-27.4,0-49.6,22.3-49.6,49.6S672.6,349,700,349s49.6-22.3,49.6-49.6S727.4,249.8,700,249.8z"/>
	</g>
	<g>
		<path stroke='#fff' fill='#fff' d="M922.4,773.6H490.8c-1,0-1.8-0.8-1.8-1.8c0-1,0.8-1.8,1.8-1.8h431.6c1,0,1.8,0.8,1.8,1.8
			C924.3,772.8,923.4,773.6,922.4,773.6z"/>
	</g>
	<g>
		<path stroke='#fff' fill='#fff' d="M889.8,701H454.6c-1,0-1.8-0.8-1.8-1.8c0-1,0.8-1.8,1.8-1.8h435.2c1,0,1.8,0.8,1.8,1.8C891.6,700.2,890.8,701,889.8,701z"
			/>
	</g>
	<g>
		<path stroke='#fff' fill='#fff' fill="#253858" d="M545.8,872.1h-21.8c0,0,2.3,30.1,21.8,51.8c19.5-21.8,21.8-51.8,21.8-51.8H545.8z"/>
		<path stroke='#fff' fill='#fff' d="M545.8,925.8c-0.5,0-1-0.2-1.4-0.6c-19.7-22-22.1-51.7-22.2-52.9c0-0.5,0.1-1,0.5-1.4c0.3-0.4,0.8-0.6,1.3-0.6h43.5
			c0.5,0,1,0.2,1.3,0.6c0.3,0.4,0.5,0.9,0.5,1.4c-0.1,1.3-2.5,30.9-22.2,52.9C546.9,925.5,546.4,925.8,545.8,925.8z M526.1,873.9
			c0.9,6.7,4.8,29.6,19.7,47.3c14.9-17.7,18.9-40.5,19.7-47.3H526.1z"/>
	</g>
	<g>
		<path stroke='#fff' fill='#fff' fill="#253858" d="M648.6,872.1h-21.8c0,0,2.3,30.1,21.8,51.8c19.5-21.8,21.8-51.8,21.8-51.8H648.6z"/>
		<path stroke='#fff' fill='#fff' d="M648.6,925.8c-0.5,0-1-0.2-1.4-0.6c-19.7-22-22.1-51.7-22.2-52.9c0-0.5,0.1-1,0.5-1.4c0.3-0.4,0.8-0.6,1.3-0.6h43.5
			c0.5,0,1,0.2,1.3,0.6s0.5,0.9,0.5,1.4c-0.1,1.3-2.5,30.9-22.2,52.9C649.6,925.5,649.1,925.8,648.6,925.8z M628.9,873.9
			c0.9,6.7,4.8,29.6,19.7,47.3c14.9-17.7,18.9-40.5,19.7-47.3H628.9z"/>
	</g>
	<g>
		<path stroke='#fff' fill='#fff' fill="#253858" d="M751.4,872.1h-21.8c0,0,2.3,30.1,21.8,51.8c19.5-21.8,21.8-51.8,21.8-51.8H751.4z"/>
		<path stroke='#fff' fill='#fff' d="M751.4,925.8c-0.5,0-1-0.2-1.4-0.6c-19.7-22-22.1-51.7-22.2-52.9c0-0.5,0.1-1,0.5-1.4s0.8-0.6,1.3-0.6h43.5
			c0.5,0,1,0.2,1.3,0.6s0.5,0.9,0.5,1.4c-0.1,1.3-2.5,30.9-22.2,52.9C752.4,925.5,751.9,925.8,751.4,925.8z M731.6,873.9
			c0.9,6.7,4.8,29.6,19.7,47.3c14.9-17.7,18.9-40.5,19.7-47.3H731.6z"/>
	</g>
	<g>
		<path stroke='#fff' fill='#fff' fill="#253858" d="M854.2,872.1h-21.8c0,0,2.3,30.1,21.8,51.8c19.5-21.8,21.8-51.8,21.8-51.8H854.2z"/>
		<path stroke='#fff' fill='#fff' d="M854.2,925.8c-0.5,0-1-0.2-1.4-0.6c-19.7-22-22.1-51.7-22.2-52.9c0-0.5,0.1-1,0.5-1.4s0.8-0.6,1.3-0.6h43.5
			c0.5,0,1,0.2,1.3,0.6s0.5,0.9,0.5,1.4c-0.1,1.3-2.5,30.9-22.2,52.9C855.2,925.5,854.7,925.8,854.2,925.8z M834.4,873.9
			c0.9,6.7,4.8,29.6,19.7,47.3c14.9-17.7,18.9-40.5,19.7-47.3H834.4z"/>
	</g>
	<g>
		<path stroke='#fff' fill='#fff' d="M579.5,873.9h-67.3c-1,0-1.8-0.8-1.8-1.8s0.8-1.8,1.8-1.8h67.3c1,0,1.8,0.8,1.8,1.8S580.5,873.9,579.5,873.9z"/>
	</g>
	<g>
		<path stroke='#fff' fill='#fff' d="M682.3,873.9H615c-1,0-1.8-0.8-1.8-1.8s0.8-1.8,1.8-1.8h67.3c1,0,1.8,0.8,1.8,1.8S683.3,873.9,682.3,873.9z"/>
	</g>
	<g>
		<path stroke='#fff' fill='#fff' d="M785,873.9h-67.3c-1,0-1.8-0.8-1.8-1.8s0.8-1.8,1.8-1.8H785c1,0,1.8,0.8,1.8,1.8S786.1,873.9,785,873.9z"/>
	</g>
	<g>
		<path stroke='#fff' fill='#fff' d="M887.8,873.9h-67.3c-1,0-1.8-0.8-1.8-1.8s0.8-1.8,1.8-1.8h67.3c1,0,1.8,0.8,1.8,1.8S888.8,873.9,887.8,873.9z"/>
	</g>
	<g>
		<g>
			<rect x="567.6" y="699.2" fill="#253858" width="59.2" height="72.5"/>
		</g>
		<g>
			<rect x="773.1" y="699.2" fill="#253858" width="59.2" height="72.5"/>
		</g>
		<g>
			<rect x="670.4" y="699.2" fill="#253858" width="59.2" height="72.5"/>
		</g>
		<g>
			<rect x="524.1" y="699.2" fill="#253858" width="43.5" height="72.5"/>
			<path stroke='#fff' fill='#fff' d="M567.6,773.6h-43.5c-1,0-1.8-0.8-1.8-1.8v-72.5c0-1,0.8-1.8,1.8-1.8h43.5c1,0,1.8,0.8,1.8,1.8v72.5
				C569.4,772.8,568.6,773.6,567.6,773.6z M525.9,770h39.9V701h-39.9V770z"/>
		</g>
		<g>
			<rect x="524.1" y="650.9" fill="#253858" width="43.5" height="48.4"/>
			<path stroke='#fff' fill='#fff' d="M567.6,701h-43.5c-1,0-1.8-0.8-1.8-1.8v-48.4c0-1,0.8-1.8,1.8-1.8h43.5c1,0,1.8,0.8,1.8,1.8v48.4
				C569.4,700.2,568.6,701,567.6,701z M525.9,697.4h39.9v-44.7h-39.9V697.4z"/>
		</g>
		<g>
			<rect x="524.1" y="771.8" fill="#253858" width="43.5" height="100.3"/>
			<path stroke='#fff' fill='#fff' d="M567.6,873.9h-43.5c-1,0-1.8-0.8-1.8-1.8V771.8c0-1,0.8-1.8,1.8-1.8h43.5c1,0,1.8,0.8,1.8,1.8v100.3
				C569.4,873.1,568.6,873.9,567.6,873.9z M525.9,870.3h39.9v-96.7h-39.9V870.3z"/>
		</g>
		<g>
			<rect x="626.9" y="771.8" fill="#253858" width="43.5" height="100.3"/>
			<path stroke='#fff' fill='#fff' d="M670.4,873.9h-43.5c-1,0-1.8-0.8-1.8-1.8V771.8c0-1,0.8-1.8,1.8-1.8h43.5c1,0,1.8,0.8,1.8,1.8v100.3
				C672.2,873.1,671.4,873.9,670.4,873.9z M628.7,870.3h39.9v-96.7h-39.9V870.3z"/>
		</g>
		<g>
			<rect x="626.9" y="650.9" fill="#253858" width="43.5" height="48.4"/>
			<path stroke='#fff' fill='#fff' d="M670.4,701h-43.5c-1,0-1.8-0.8-1.8-1.8v-48.4c0-1,0.8-1.8,1.8-1.8h43.5c1,0,1.8,0.8,1.8,1.8v48.4
				C672.2,700.2,671.4,701,670.4,701z M628.7,697.4h39.9v-44.7h-39.9V697.4z"/>
		</g>
		<g>
			<rect x="626.9" y="699.2" fill="#253858" width="43.5" height="72.5"/>
			<path stroke='#fff' fill='#fff' d="M670.4,773.6h-43.5c-1,0-1.8-0.8-1.8-1.8v-72.5c0-1,0.8-1.8,1.8-1.8h43.5c1,0,1.8,0.8,1.8,1.8v72.5
				C672.2,772.8,671.4,773.6,670.4,773.6z M628.7,770h39.9V701h-39.9V770z"/>
		</g>
		<g>
			<rect x="729.6" y="771.8" fill="#253858" width="43.5" height="100.3"/>
			<path stroke='#fff' fill='#fff' d="M773.1,873.9h-43.5c-1,0-1.8-0.8-1.8-1.8V771.8c0-1,0.8-1.8,1.8-1.8h43.5c1,0,1.8,0.8,1.8,1.8v100.3
				C775,873.1,774.2,873.9,773.1,873.9z M731.4,870.3h39.9v-96.7h-39.9V870.3z"/>
		</g>
		<g>
			<rect x="729.6" y="650.9" fill="#253858" width="43.5" height="48.4"/>
			<path stroke='#fff' fill='#fff' d="M773.1,701h-43.5c-1,0-1.8-0.8-1.8-1.8v-48.4c0-1,0.8-1.8,1.8-1.8h43.5c1,0,1.8,0.8,1.8,1.8v48.4
				C775,700.2,774.2,701,773.1,701z M731.4,697.4h39.9v-44.7h-39.9V697.4z"/>
		</g>
		<g>
			<rect x="729.6" y="699.2" fill="#253858" width="43.5" height="72.5"/>
			<path stroke='#fff' fill='#fff' d="M773.1,773.6h-43.5c-1,0-1.8-0.8-1.8-1.8v-72.5c0-1,0.8-1.8,1.8-1.8h43.5c1,0,1.8,0.8,1.8,1.8v72.5
				C775,772.8,774.2,773.6,773.1,773.6z M731.4,770h39.9V701h-39.9V770z"/>
		</g>
		<g>
			<rect x="832.4" y="771.8" fill="#253858" width="43.5" height="100.3"/>
			<path stroke='#fff' fill='#fff' d="M875.9,873.9h-43.5c-1,0-1.8-0.8-1.8-1.8V771.8c0-1,0.8-1.8,1.8-1.8h43.5c1,0,1.8,0.8,1.8,1.8v100.3
				C877.7,873.1,876.9,873.9,875.9,873.9z M834.2,870.3h39.9v-96.7h-39.9V870.3z"/>
		</g>
		<g>
			<rect x="832.4" y="699.2" fill="#253858" width="43.5" height="72.5"/>
			<path stroke='#fff' fill='#fff' d="M875.9,773.6h-43.5c-1,0-1.8-0.8-1.8-1.8v-72.5c0-1,0.8-1.8,1.8-1.8h43.5c1,0,1.8,0.8,1.8,1.8v72.5
				C877.7,772.8,876.9,773.6,875.9,773.6z M834.2,770h39.9V701h-39.9V770z"/>
		</g>
		<g>
			<rect x="832.4" y="650.9" fill="#253858" width="43.5" height="48.4"/>
			<path stroke='#fff' fill='#fff' d="M875.9,701h-43.5c-1,0-1.8-0.8-1.8-1.8v-48.4c0-1,0.8-1.8,1.8-1.8h43.5c1,0,1.8,0.8,1.8,1.8v48.4
				C877.7,700.2,876.9,701,875.9,701z M834.2,697.4h39.9v-44.7h-39.9V697.4z"/>
		</g>
	</g>
	<g>
		<path stroke='#fff' fill='#fff' d="M1196.3,737.3h-35.7c-1,0-1.8-0.8-1.8-1.8s0.8-1.8,1.8-1.8h35.7c1,0,1.8,0.8,1.8,1.8S1197.3,737.3,1196.3,737.3z"/>
	</g>
	<g>
		<path stroke='#fff' fill='#fff' d="M1076.3,692.6h-35.7c-1,0-1.8-0.8-1.8-1.8s0.8-1.8,1.8-1.8h35.7c1,0,1.8,0.8,1.8,1.8S1077.3,692.6,1076.3,692.6z"/>
	</g>
	<g>
		<path stroke='#fff' fill='#fff' d="M175.6,574.4C175.6,574.4,175.6,574.4,175.6,574.4c-1.1,0-1.8-0.9-1.8-1.9c0.8-23.8,20.1-42.5,43.9-42.5
			c7,0,13.9,1.7,20.2,4.9c5.9-27.2,29.8-46.7,57.9-46.7c9.3,0,18.5,2.2,26.7,6.3c17.2-38.2,55.1-62.7,97-62.7
			c47.5,0,89.6,31.9,102.4,77.5c0.3,1-0.3,2-1.3,2.2c-1,0.3-2-0.3-2.2-1.3c-12.4-44.1-53.1-74.8-98.9-74.8
			c-41.2,0-78.2,24.5-94.5,62.3c-0.2,0.5-0.6,0.8-1.1,1c-0.5,0.2-1,0.1-1.5-0.1c-8.1-4.5-17.4-6.8-26.7-6.8
			c-27.2,0-50.2,19.4-54.8,46.2c-0.1,0.6-0.5,1.1-1,1.3c-0.5,0.3-1.2,0.2-1.7-0.1c-6.2-3.7-13.4-5.7-20.5-5.7
			c-21.8,0-39.5,17.1-40.3,39C177.4,573.7,176.6,574.4,175.6,574.4z"/>
	</g>
	<g>
		<path stroke='#fff' fill='#fff' d="M1208.3,619.2c-0.1,0-0.2,0-0.3,0c-1-0.1-1.7-1.1-1.5-2.1l0.1-0.7c0.2-1.6,0.5-3.1,0.5-4.6c0-20.6-16.8-37.4-37.4-37.4
			c-5.6,0-11.2,1.4-16.6,4c-0.6,0.3-1.3,0.2-1.8-0.1c-0.5-0.4-0.9-1-0.8-1.6c0-0.5,0.1-1.1,0.1-1.6c0.1-0.8,0.1-1.7,0.1-2.5
			c0-51.7-42.1-93.7-93.7-93.7c-7.9,0-15.9,1.1-24,3.2c-0.9,0.2-1.9-0.3-2.2-1.2c-8.1-23.1-29.9-38.6-54.3-38.6
			c-29.8,0-54.5,22.4-57.3,52.1c-0.1,0.9-0.9,1.6-1.8,1.6c-42.2,0-76.6,34.4-76.6,76.6c0,1.1,0,2.2,0.1,3.2c0,1-0.7,1.8-1.7,1.9
			c-1,0-1.8-0.7-1.9-1.7c-0.1-1.1-0.1-2.3-0.1-3.4c0-43.7,35.1-79.3,78.6-80.2c3.8-30.7,29.6-53.7,60.8-53.7
			c25.4,0,48.2,15.8,57.2,39.5c7.8-1.9,15.7-2.9,23.3-2.9c53.7,0,97.4,43.7,97.4,97.4c0,0.4,0,0.9,0,1.3c5-2.1,10.2-3.1,15.4-3.1
			c22.6,0,41,18.4,41,41c0,1.8-0.2,3.5-0.5,5.1l-0.1,0.6C1209.9,618.6,1209.2,619.2,1208.3,619.2z"/>
	</g>
	<g>
		<path stroke='#fff' fill='#fff' d="M1188.2,870h-58.6c-0.9,0-1.7-0.6-1.8-1.5c-2.8-17.5-16.5-31.2-34-34.1c-1-0.2-1.6-1.1-1.5-2c0.4-2.6,0.6-4.8,0.6-6.9
			c0-26.4-21.4-47.8-47.8-47.8c-19.3,0-36.7,11.5-44.1,29.4c-0.3,0.8-1.2,1.3-2.1,1.1c-3.3-0.7-6.6-1.1-9.9-1.1
			c-25.6,0-46.4,20.8-46.4,46.4c0,4.4,0.6,8.7,1.9,13h60.7c1,0,1.8,0.8,1.8,1.8c0,1-0.8,1.8-1.8,1.8H943c-0.8,0-1.5-0.5-1.7-1.3
			c-1.6-5-2.4-10.2-2.4-15.3c0-27.6,22.5-50.1,50.1-50.1c3,0,6.1,0.3,9.2,0.9c8.3-18.4,26.6-30.3,46.9-30.3
			c28.4,0,51.4,23.1,51.4,51.4c0,1.8-0.1,3.6-0.4,5.7c17.7,3.6,31.5,17.5,35,35.3h57.1c1,0,1.8,0.8,1.8,1.8
			C1190,869.2,1189.2,870,1188.2,870z"/>
	</g>
	<g>
		<path stroke='#fff' fill='#fff' d="M447.7,873.9c-0.1,0-0.3,0-0.4,0c-1-0.2-1.6-1.2-1.4-2.1c0.5-2.3,0.7-4.7,0.7-7c0-18.6-15.1-33.8-33.8-33.8
			c-5,0-9.8,1.1-14.4,3.2c-0.5,0.3-1.2,0.2-1.7-0.1c-0.5-0.3-0.9-0.8-0.9-1.4c-2.7-30.9-29.1-55.2-60.2-55.2
			c-33.3,0-60.5,27.1-60.5,60.5l0.1,1.2c0,0.6-0.2,1.1-0.7,1.5c-0.4,0.3-1,0.5-1.6,0.3c-2.9-0.7-5.7-1.1-8.5-1.1
			c-17.5,0-31.9,13.2-33.6,30.5h104.1c1,0,1.8,0.8,1.8,1.8s-0.8,1.8-1.8,1.8h-106c-0.5,0-1-0.2-1.3-0.6c-0.3-0.4-0.5-0.8-0.5-1.3
			c0.8-20.1,17.2-35.8,37.3-35.8c2.3,0,4.7,0.2,7.1,0.7c0.6-34.8,29.1-63,64.1-63c32.1,0,59.5,24.4,63.6,56
			c4.4-1.7,8.9-2.6,13.6-2.6c20.6,0,37.4,16.8,37.4,37.4c0,2.6-0.3,5.2-0.8,7.8C449.3,873.3,448.5,873.9,447.7,873.9z"/>
	</g>
	<g>
		<g>
			<circle fill="#253858" cx="224.2" cy="183.4" r="62.8"/>
			<path stroke='#fff' fill='#fff' d="M224.2,248.1c-35.6,0-64.6-29-64.6-64.6c0-35.6,29-64.6,64.6-64.6c35.6,0,64.6,29,64.6,64.6
				C288.8,219.1,259.8,248.1,224.2,248.1z M224.2,122.4c-33.6,0-61,27.4-61,61c0,33.6,27.4,61,61,61s61-27.4,61-61
				C285.2,149.8,257.8,122.4,224.2,122.4z"/>
		</g>
		<g>
			<path stroke='#fff' fill='#fff' fill="#253858" d="M224.2,137.8c25.2,0,45.7,20.4,45.7,45.7"/>
			<path stroke='#fff' fill='#fff' d="M269.8,185.2c-1,0-1.8-0.8-1.8-1.8c0-24.2-19.7-43.9-43.9-43.9c-1,0-1.8-0.8-1.8-1.8c0-1,0.8-1.8,1.8-1.8
				c26.2,0,47.5,21.3,47.5,47.5C271.6,184.4,270.8,185.2,269.8,185.2z"/>
		</g>
		<g>
			<path stroke='#fff' fill='#fff' fill="#253858" d="M284.9,248.3c0,16-12.9,28.9-28.9,28.9c-16,0-28.9-12.9-28.9-28.9c0-16,12.9-28.9,28.9-28.9
				C271.9,219.4,284.9,232.4,284.9,248.3z"/>
			<path stroke='#fff' fill='#fff' d="M256,279c-16.9,0-30.7-13.8-30.7-30.7c0-16.9,13.8-30.7,30.7-30.7c16.9,0,30.7,13.8,30.7,30.7
				C286.7,265.3,272.9,279,256,279z M256,221.3c-14.9,0-27.1,12.1-27.1,27.1c0,14.9,12.1,27.1,27.1,27.1c14.9,0,27.1-12.1,27.1-27.1
				C283.1,233.4,270.9,221.3,256,221.3z"/>
		</g>
		<g>
			<path stroke='#fff' fill='#fff' fill="#253858" d="M143.8,213.2c0,8.6-6.9,15.5-15.5,15.5c-8.6,0-15.5-6.9-15.5-15.5c0-8.6,6.9-15.5,15.5-15.5
				C136.8,197.7,143.8,204.6,143.8,213.2z"/>
			<path stroke='#fff' fill='#fff' d="M128.3,230.5c-9.5,0-17.3-7.8-17.3-17.3c0-9.5,7.8-17.3,17.3-17.3c9.5,0,17.3,7.8,17.3,17.3
				C145.6,222.7,137.8,230.5,128.3,230.5z M128.3,199.5c-7.5,0-13.7,6.1-13.7,13.7c0,7.5,6.1,13.7,13.7,13.7
				c7.5,0,13.7-6.1,13.7-13.7C141.9,205.6,135.8,199.5,128.3,199.5z"/>
		</g>
	</g>
	<g>
		<g>
			<path stroke='#fff' fill='#fff' d="M1050.6,280.3H921.4c-1,0-1.8-0.8-1.8-1.8c0-1,0.8-1.8,1.8-1.8h129.1c35,0,63.5-28.5,63.5-63.5c0-35-28.5-63.5-63.5-63.5
				H857.1c-1,0-1.8-0.8-1.8-1.8c0-1,0.8-1.8,1.8-1.8h193.5c37,0,67.1,30.1,67.1,67.1S1087.6,280.3,1050.6,280.3z"/>
		</g>
		<g>
			<path stroke='#fff' fill='#fff' d="M1050.8,257.9c-24.6,0-44.7-20.1-44.7-44.7c0-24.6,20.1-44.7,44.7-44.7s44.7,20.1,44.7,44.7
				C1095.5,237.8,1075.4,257.9,1050.8,257.9z M1050.8,172.1c-22.6,0-41.1,18.4-41.1,41.1s18.4,41.1,41.1,41.1s41.1-18.4,41.1-41.1
				S1073.4,172.1,1050.8,172.1z"/>
		</g>
		<g>
			<path stroke='#fff' fill='#fff' d="M976.7,184h-60.5c-1,0-1.8-0.8-1.8-1.8c0-1,0.8-1.8,1.8-1.8h60.5c1,0,1.8,0.8,1.8,1.8C978.5,183.2,977.7,184,976.7,184z"
				/>
		</g>
		<g>
			<path stroke='#fff' fill='#fff' d="M976.7,215h-88.3c-1,0-1.8-0.8-1.8-1.8s0.8-1.8,1.8-1.8h88.3c1,0,1.8,0.8,1.8,1.8S977.7,215,976.7,215z"/>
		</g>
		<g>
			<path stroke='#fff' fill='#fff' d="M976.7,245.9H844.6c-1,0-1.8-0.8-1.8-1.8s0.8-1.8,1.8-1.8h132.1c1,0,1.8,0.8,1.8,1.8S977.7,245.9,976.7,245.9z"/>
		</g>
		<g>
			<path stroke='#fff' fill='#fff' d="M890.9,184h-40c-1,0-1.8-0.8-1.8-1.8c0-1,0.8-1.8,1.8-1.8h40c1,0,1.8,0.8,1.8,1.8C892.8,183.2,891.9,184,890.9,184z"/>
		</g>
		<g>
			<path stroke='#fff' fill='#fff' d="M863,215h-40c-1,0-1.8-0.8-1.8-1.8s0.8-1.8,1.8-1.8h40c1,0,1.8,0.8,1.8,1.8S864,215,863,215z"/>
		</g>
		<g>
			<path stroke='#fff' fill='#fff' d="M1093.7,215h-34.4c-1,0-1.8-0.8-1.8-1.8s0.8-1.8,1.8-1.8h34.4c1,0,1.8,0.8,1.8,1.8S1094.7,215,1093.7,215z"/>
		</g>
		<g>
			<path stroke='#fff' fill='#fff' d="M1085.3,240.5h-17.1c-1,0-1.8-0.8-1.8-1.8s0.8-1.8,1.8-1.8h17.1c1,0,1.8,0.8,1.8,1.8S1086.3,240.5,1085.3,240.5z"/>
		</g>
		<g>
			<path stroke='#fff' fill='#fff' d="M1085.3,189.5H1038c-1,0-1.8-0.8-1.8-1.8c0-1,0.8-1.8,1.8-1.8h47.2c1,0,1.8,0.8,1.8,1.8
				C1087.1,188.7,1086.3,189.5,1085.3,189.5z"/>
		</g>
	</g>
	<g>
		<path stroke='#fff' fill='#fff' d="M700,301.2c-0.5,0-0.9-0.2-1.3-0.5c-0.7-0.7-0.7-1.9,0-2.6l36.3-36.3c0.7-0.7,1.9-0.7,2.6,0c0.7,0.7,0.7,1.9,0,2.6
			l-36.3,36.3C700.9,301.1,700.5,301.2,700,301.2z"/>
	</g>
	<g>
		<path stroke='#fff' fill='#fff' d="M754.4,539c-1,0-1.8-0.8-1.8-1.8V412.7c0-1,0.8-1.8,1.8-1.8c1,0,1.8,0.8,1.8,1.8v124.4C756.2,538.1,755.4,539,754.4,539z"
			/>
	</g>
	<g>
		<path stroke='#fff' fill='#fff' d="M754.4,603.3c-1,0-1.8-0.8-1.8-1.8v-39c0-1,0.8-1.8,1.8-1.8c1,0,1.8,0.8,1.8,1.8v39C756.2,602.5,755.4,603.3,754.4,603.3z
			"/>
	</g>
	<g>
		<path stroke='#fff' fill='#fff' d="M717.7,476.7c-1,0-1.8-0.8-1.8-1.8v-62.2c0-1,0.8-1.8,1.8-1.8c1,0,1.8,0.8,1.8,1.8v62.2
			C719.5,475.9,718.7,476.7,717.7,476.7z"/>
	</g>
	<g>
		<g>
			<path stroke='#fff' fill='#fff' d="M1197.8,459.3c-40.7,0-74.4-31.8-76.8-72.5c0-0.7,0.3-1.3,0.9-1.7c0.6-0.3,1.3-0.3,1.9,0c17.7,10.8,39.4,20.8,62.8,29
				c23.4,8.2,46.6,14,67.2,16.6c0.7,0.1,1.2,0.5,1.5,1.2c0.2,0.6,0.1,1.3-0.4,1.8C1240.2,450.1,1219.4,459.3,1197.8,459.3z
				 M1124.9,390.1c3.9,37,35.3,65.6,72.9,65.6c19.5,0,38.2-7.9,52-21.7c-19.9-2.9-42.1-8.5-64.4-16.3
				C1163.1,409.9,1142.3,400.4,1124.9,390.1z"/>
		</g>
		<g>
			<path stroke='#fff' fill='#fff' d="M1276.3,436.1C1276.3,436.1,1276.3,436.1,1276.3,436.1c-6.9,0-14.7-0.5-23-1.6c-0.7-0.1-1.2-0.5-1.5-1.2
				c-0.2-0.6-0.1-1.3,0.4-1.8c12.2-13.5,19-31,19-49.1c0-1.1-0.1-2.1-0.1-3.1l-0.1-1.2c0-0.7,0.3-1.3,0.9-1.7c0.6-0.3,1.3-0.3,1.9,0
				c28.7,17.5,42.8,34.4,38.7,46.2C1309.2,431.4,1296.8,436.1,1276.3,436.1z M1257.1,431.3c6.9,0.8,13.3,1.2,19.2,1.2
				c18.5,0,30.1-3.9,32.6-11.1c3.3-9.4-9.7-24.7-34.2-40.1c0,0.3,0,0.7,0,1C1274.8,400.2,1268.5,417.5,1257.1,431.3z"/>
		</g>
		<g>
			<path stroke='#fff' fill='#fff' d="M1122.8,388.6c-0.3,0-0.7-0.1-0.9-0.3c-28.7-17.5-42.8-34.3-38.7-46.2c3.1-8.8,15.6-13.5,36-13.5c6.9,0,14.7,0.5,23,1.6
				c0.7,0.1,1.2,0.5,1.5,1.2c0.2,0.6,0.1,1.3-0.4,1.8c-12.2,13.5-19,31-19,49.1c0,1.1,0.1,2.1,0.1,3.1l0.1,1.2
				c0,0.7-0.3,1.3-0.9,1.7C1123.5,388.5,1123.2,388.6,1122.8,388.6z M1119.3,332.2c-18.5,0-30.1,3.9-32.6,11.1
				c-3.3,9.4,9.7,24.7,34.2,40.1c0-0.3,0-0.7,0-1c0-17.9,6.2-35.1,17.7-48.9C1131.6,332.6,1125.1,332.2,1119.3,332.2z"/>
		</g>
		<g>
			<path stroke='#fff' fill='#fff' d="M1253.5,434.5c-0.1,0-0.2,0-0.2,0c-20.8-2.7-44.3-8.5-67.9-16.8c-23.6-8.3-45.6-18.4-63.5-29.4c-0.5-0.3-0.8-0.9-0.9-1.4
				l-0.1-1.2c-0.1-1.1-0.1-2.2-0.1-3.4c0-19,7.1-37.3,19.9-51.6c14.6-16.2,35.4-25.4,57.1-25.4c40.7,0,74.4,31.8,76.8,72.5l0.1,1.2
				c0.1,1.1,0.1,2.2,0.1,3.4c0,19-7.1,37.3-19.9,51.5C1254.5,434.3,1254,434.5,1253.5,434.5z M1124.6,385.7
				c17.6,10.6,39,20.5,62,28.6c23,8.1,45.9,13.8,66.2,16.5c11.8-13.4,18.3-30.6,18.3-48.4c0-1.1-0.1-2.1-0.1-3.1l-0.1-1.2
				c-2.3-38.7-34.4-69-73.1-69c-20.6,0-40.5,8.8-54.4,24.2c-12.2,13.5-19,31-19,49.1c0,1.1,0.1,2.1,0.1,3.1L1124.6,385.7z"/>
		</g>
		<g>
			<path stroke='#fff' fill='#fff' d="M1300.8,365.1c-7.7,0-14-6.3-14-14s6.3-14,14-14c7.7,0,14,6.3,14,14S1308.5,365.1,1300.8,365.1z M1300.8,340.7
				c-5.7,0-10.4,4.7-10.4,10.4c0,5.7,4.7,10.4,10.4,10.4c5.7,0,10.4-4.7,10.4-10.4C1311.2,345.4,1306.5,340.7,1300.8,340.7z"/>
		</g>
		<g>
			<path stroke='#fff' fill='#fff' d="M1089.9,412c-6.7,0-12.1-5.4-12.1-12.1c0-6.7,5.4-12.1,12.1-12.1c6.7,0,12.1,5.4,12.1,12.1
				C1102,406.6,1096.6,412,1089.9,412z M1089.9,391.5c-4.7,0-8.4,3.8-8.4,8.4c0,4.7,3.8,8.4,8.4,8.4s8.4-3.8,8.4-8.4
				C1098.3,395.3,1094.6,391.5,1089.9,391.5z"/>
		</g>
		<g>
			<path stroke='#fff' fill='#fff' fill="#253858" d="M1183.7,407.6c0,10.7-8.7,19.4-19.4,19.4s-19.4-8.7-19.4-19.4s8.7-19.4,19.4-19.4
				S1183.7,396.9,1183.7,407.6z"/>
			<path stroke='#fff' fill='#fff' d="M1164.3,428.8c-11.7,0-21.2-9.5-21.2-21.2s9.5-21.2,21.2-21.2c11.7,0,21.2,9.5,21.2,21.2S1176,428.8,1164.3,428.8z
				 M1164.3,390.1c-9.7,0-17.6,7.9-17.6,17.6c0,9.7,7.9,17.6,17.6,17.6c9.7,0,17.6-7.9,17.6-17.6
				C1181.9,398,1174,390.1,1164.3,390.1z"/>
		</g>
	</g>
	<g>
		<g>
			<path stroke='#fff' fill='#fff' d="M115.9,408.1c-1,0-1.8-0.8-1.8-1.8c0-45.9,37.4-83.3,83.3-83.3c1,0,1.8,0.8,1.8,1.8c0,1-0.8,1.8-1.8,1.8
				c-43.9,0-79.7,35.8-79.7,79.7C117.7,407.3,116.9,408.1,115.9,408.1z"/>
		</g>
		<g>
			<path stroke='#fff' fill='#fff' d="M197.4,467.4c-33.7,0-61.1-27.4-61.1-61.1c0-33.7,27.4-61.1,61.1-61.1c33.7,0,61.1,27.4,61.1,61.1
				C258.5,440,231.1,467.4,197.4,467.4z M197.4,348.9c-31.7,0-57.4,25.8-57.4,57.4c0,31.7,25.8,57.4,57.4,57.4
				c31.7,0,57.4-25.8,57.4-57.4C254.9,374.6,229.1,348.9,197.4,348.9z"/>
		</g>
		<g>
			<path stroke='#fff' fill='#fff' d="M256.7,408.1h-59.3c-1,0-1.8-0.8-1.8-1.8c0-1,0.8-1.8,1.8-1.8h59.3c1,0,1.8,0.8,1.8,1.8
				C258.5,407.3,257.7,408.1,256.7,408.1z"/>
		</g>
		<g>
			<path stroke='#fff' fill='#fff' d="M251.6,384.1H217c-1,0-1.8-0.8-1.8-1.8c0-1,0.8-1.8,1.8-1.8h34.6c1,0,1.8,0.8,1.8,1.8
				C253.5,383.3,252.6,384.1,251.6,384.1z"/>
		</g>
		<g>
			<path stroke='#fff' fill='#fff' d="M251.6,432.1h-47.1c-1,0-1.8-0.8-1.8-1.8s0.8-1.8,1.8-1.8h47.1c1,0,1.8,0.8,1.8,1.8S252.6,432.1,251.6,432.1z"/>
		</g>
	</g>
	<g>
		<path stroke='#fff' fill='#fff' d="M750.3,114.2c-0.5,0-0.9-0.2-1.3-0.5l-49-49l-49,49c-0.7,0.7-1.9,0.7-2.6,0c-0.7-0.7-0.7-1.9,0-2.6l50.3-50.2
			c0.7-0.7,1.9-0.7,2.6,0l50.3,50.3c0.7,0.7,0.7,1.9,0,2.6C751.2,114,750.7,114.2,750.3,114.2z"/>
	</g>
	<g>
		<g>
			<path stroke='#fff' fill='#fff' d="M976.7,383.8c-10.1,0-18.2-8.2-18.2-18.2c0-10.1,8.2-18.2,18.2-18.2c10.1,0,18.2,8.2,18.2,18.2
				C995,375.6,986.8,383.8,976.7,383.8z M976.7,350.9c-8.1,0-14.6,6.6-14.6,14.6c0,8.1,6.6,14.6,14.6,14.6c8.1,0,14.6-6.6,14.6-14.6
				C991.3,357.5,984.8,350.9,976.7,350.9z"/>
		</g>
		<g>
			<path stroke='#fff' fill='#fff' d="M1012,367.4h-18.8c-1,0-1.8-0.8-1.8-1.8c0-1,0.8-1.8,1.8-1.8h18.8c1,0,1.8,0.8,1.8,1.8
				C1013.8,366.5,1013,367.4,1012,367.4z"/>
		</g>
		<g>
			<path stroke='#fff' fill='#fff' d="M960.3,367.4h-18.8c-1,0-1.8-0.8-1.8-1.8c0-1,0.8-1.8,1.8-1.8h18.8c1,0,1.8,0.8,1.8,1.8
				C962.1,366.5,961.3,367.4,960.3,367.4z"/>
		</g>
		<g>
			<path stroke='#fff' fill='#fff' d="M976.7,402.6c-1,0-1.8-0.8-1.8-1.8V382c0-1,0.8-1.8,1.8-1.8c1,0,1.8,0.8,1.8,1.8v18.8
				C978.5,401.8,977.7,402.6,976.7,402.6z"/>
		</g>
		<g>
			<path stroke='#fff' fill='#fff' d="M976.7,350.9c-1,0-1.8-0.8-1.8-1.8v-18.8c0-1,0.8-1.8,1.8-1.8c1,0,1.8,0.8,1.8,1.8v18.8
				C978.5,350.1,977.7,350.9,976.7,350.9z"/>
		</g>
	</g>
	<g>
		<g>
			<g>
				<path stroke='#fff' fill='#fff' d="M1257.1,134.7c-5.5,0-10-4.5-10-10c0-5.5,4.5-10,10-10c5.5,0,10,4.5,10,10C1267.2,130.2,1262.7,134.7,1257.1,134.7z
					 M1257.1,118.3c-3.5,0-6.4,2.9-6.4,6.4c0,3.5,2.9,6.4,6.4,6.4c3.5,0,6.4-2.9,6.4-6.4C1263.6,121.1,1260.7,118.3,1257.1,118.3z"
					/>
			</g>
			<g>
				<path stroke='#fff' fill='#fff' d="M1274.8,126.5h-9.4c-1,0-1.8-0.8-1.8-1.8c0-1,0.8-1.8,1.8-1.8h9.4c1,0,1.8,0.8,1.8,1.8
					C1276.6,125.7,1275.8,126.5,1274.8,126.5z"/>
			</g>
			<g>
				<path stroke='#fff' fill='#fff' d="M1248.9,126.5h-9.4c-1,0-1.8-0.8-1.8-1.8c0-1,0.8-1.8,1.8-1.8h9.4c1,0,1.8,0.8,1.8,1.8
					C1250.8,125.7,1249.9,126.5,1248.9,126.5z"/>
			</g>
			<g>
				<path stroke='#fff' fill='#fff' d="M1257.1,144.1c-1,0-1.8-0.8-1.8-1.8v-9.4c0-1,0.8-1.8,1.8-1.8c1,0,1.8,0.8,1.8,1.8v9.4
					C1259,143.3,1258.2,144.1,1257.1,144.1z"/>
			</g>
			<g>
				<path stroke='#fff' fill='#fff' d="M1257.1,118.3c-1,0-1.8-0.8-1.8-1.8V107c0-1,0.8-1.8,1.8-1.8c1,0,1.8,0.8,1.8,1.8v9.4
					C1259,117.5,1258.2,118.3,1257.1,118.3z"/>
			</g>
		</g>
		<g>
			<path stroke='#fff' fill='#fff' d="M1229.3,201.4c-0.1,0-0.2,0-0.3,0c-0.5-0.1-1-0.4-1.3-0.9l-4.2-7.3l-4.8-9c-0.6-1.2-1.3-2.4-1.9-3.7l-2.3-4.2
				c-2.9-5.5-6.4-11.1-10.4-16.6c-1.2-1.7-2.6-3.4-3.9-5c-0.8-0.9-1.5-1.9-2.3-2.9c-0.7-0.8-1.5-1.8-2.3-2.7
				c-1.4-1.6-2.7-3.2-4.1-4.7c-4-4.3-8.7-9.3-13.6-14c-4.1-3.9-8.4-7.8-13.8-12.2c-4.5-3.8-9-7.1-13.2-10.1
				c-6.7-4.8-13.8-9.4-21.1-13.5c-5.5-3.1-8.4-5.7-8.5-5.8c-0.6-0.5-0.7-1.3-0.5-2c0.3-0.7,0.9-1.2,1.7-1.2c0.1,0,15.2,0.6,35.8,9.5
				c5,2.2,10.4,4.7,16.1,7.8c5,2.6,10.4,5.8,17.2,10.2c6.9,4.6,12.5,8.6,17.5,12.7c1.9,1.5,3.8,3.2,5.7,4.9c0.9,0.8,1.8,1.6,2.7,2.4
				c0.9,0.9,1.8,1.7,2.7,2.5c1.9,1.7,3.7,3.5,5.5,5.3c5.4,5.4,10.7,10.8,15.7,16.3c2.4,2.7,5,5.6,7.3,8.7c2.1,2.5,4,5.5,6.2,9.1
				c1.9,3,3.5,6.3,4.9,9.5c0.8,1.7,1.5,3.4,2.1,5.1c0.2,0.6,0.1,1.3-0.3,1.8c-0.4,0.5-1,0.8-1.7,0.7c-1.9-0.2-3.4-0.3-4.8-0.3
				c-9.1,0-17.9,3.3-24.7,9.2C1230.2,201.2,1229.8,201.4,1229.3,201.4z M1129.5,90.1c0.7,0.4,1.5,0.9,2.3,1.4
				c7.4,4.2,14.6,8.9,21.4,13.7c4.3,3.1,8.8,6.5,13.4,10.3c5.3,4.4,9.9,8.4,14,12.3c5,4.8,9.7,9.8,13.7,14.2
				c1.5,1.6,2.8,3.2,4.2,4.8c0.8,0.9,1.6,1.8,2.3,2.7c0.8,1,1.5,2,2.3,2.9c1.4,1.7,2.7,3.4,4,5.2c4.2,5.7,7.8,11.4,10.7,17.1
				l2.3,4.3c0.6,1.3,1.2,2.5,1.8,3.6l4.7,8.9l3.1,5.4c7.3-5.6,16.2-8.7,25.4-8.7c0.7,0,1.5,0,2.3,0.1c-0.3-0.7-0.6-1.4-0.9-2.1
				c-1.4-3.2-2.9-6.2-4.7-9.2c-2.1-3.5-4-6.3-6-8.8c-2.2-3-4.7-5.9-7.1-8.5c-4.9-5.5-10.2-10.9-15.4-16c-1.9-2-3.8-3.7-5.6-5.4
				c-0.9-0.8-1.8-1.7-2.7-2.5c-0.9-0.7-1.8-1.5-2.7-2.3c-1.9-1.6-3.7-3.2-5.6-4.8c-4.9-4.1-10.4-8-17.2-12.5
				c-6.7-4.3-12-7.5-16.9-10.1c-5.6-3-10.9-5.5-15.8-7.7C1145.5,93.4,1135.7,91.1,1129.5,90.1z"/>
		</g>
		<g>
			<path stroke='#fff' fill='#fff' d="M1255.3,271.2c-22.9,0-41.5-18.6-41.5-41.5c0-12.1,5.3-23.5,14.4-31.4c7.5-6.5,17.2-10.1,27.1-10.1
				c1.6,0,3.3,0.1,5.3,0.4c20.7,2.6,36.2,20.3,36.2,41.2C1296.8,252.5,1278.2,271.2,1255.3,271.2z M1255.3,191.7
				c-9.1,0-17.9,3.3-24.7,9.2c-8.4,7.2-13.2,17.7-13.2,28.7c0,20.9,17,37.9,37.9,37.9c20.9,0,37.9-17,37.9-37.9
				c0-19-14.2-35.2-33.1-37.6C1258.3,191.8,1256.7,191.7,1255.3,191.7z"/>
		</g>
		<g>
			<path stroke='#fff' fill='#fff' d="M1255.3,286.8c-1,0-1.8-0.8-1.8-1.8c0-1,0.8-1.8,1.8-1.8c29.5,0,53.6-24,53.6-53.6c0-1,0.8-1.8,1.8-1.8s1.8,0.8,1.8,1.8
				C1312.5,261.2,1286.8,286.8,1255.3,286.8z"/>
		</g>
		<g>
			<path stroke='#fff' fill='#fff' d="M1243.2,193.6c-0.8,0-1.5-0.5-1.7-1.3c-0.1-0.2-6.9-23.8-40.4-55c-0.7-0.7-0.8-1.8-0.1-2.6c0.7-0.7,1.8-0.8,2.6-0.1
				c34.3,32,41.1,55.7,41.4,56.7c0.3,1-0.3,2-1.3,2.2C1243.5,193.6,1243.4,193.6,1243.2,193.6z"/>
		</g>
		<g>
			<path stroke='#fff' fill='#fff' d="M1191.5,201.4c-5.3,0-9.6-4.3-9.6-9.6c0-5.3,4.3-9.6,9.6-9.6c5.3,0,9.6,4.3,9.6,9.6
				C1201.1,197.1,1196.8,201.4,1191.5,201.4z M1191.5,185.9c-3.3,0-5.9,2.7-5.9,6c0,3.3,2.7,6,5.9,6c3.3,0,6-2.7,6-6
				C1197.5,188.5,1194.8,185.9,1191.5,185.9z"/>
		</g>
		<g>
			<path stroke='#fff' fill='#fff' d="M1245.5,250.6c-0.6,0-1.1-0.3-1.5-0.8c-0.6-0.8-0.4-1.9,0.4-2.5l33-23.9c0.8-0.6,1.9-0.4,2.5,0.4
				c0.6,0.8,0.4,1.9-0.4,2.5l-33,23.9C1246.2,250.5,1245.9,250.6,1245.5,250.6z"/>
		</g>
	</g>
	<g>
		<path stroke='#fff' fill='#fff' d="M434.3,574.4H323.7c-1,0-1.8-0.8-1.8-1.8s0.8-1.8,1.8-1.8h110.6c1,0,1.8,0.8,1.8,1.8S435.3,574.4,434.3,574.4z"/>
	</g>
	<g>
		<path stroke='#fff' fill='#fff' d="M301.1,574.4h-21.8c-1,0-1.8-0.8-1.8-1.8s0.8-1.8,1.8-1.8h21.8c1,0,1.8,0.8,1.8,1.8S302.1,574.4,301.1,574.4z"/>
	</g>
	<g>
		<path stroke='#fff' fill='#fff' d="M412.8,619.2h-64.9c-1,0-1.8-0.8-1.8-1.8c0-1,0.8-1.8,1.8-1.8h64.9c1,0,1.8,0.8,1.8,1.8
			C414.6,618.4,413.8,619.2,412.8,619.2z"/>
	</g>
	<g>
		<path stroke='#fff' fill='#fff' d="M1208.3,619.2h-69.4c-1,0-1.8-0.8-1.8-1.8c0-1,0.8-1.8,1.8-1.8h69.4c1,0,1.8,0.8,1.8,1.8
			C1210.1,618.4,1209.3,619.2,1208.3,619.2z"/>
	</g>
	<g>
		<path stroke='#fff' fill='#fff' d="M1120.3,646.9h-115.2c-1,0-1.8-0.8-1.8-1.8c0-1,0.8-1.8,1.8-1.8h115.2c1,0,1.8,0.8,1.8,1.8
			C1122.1,646,1121.3,646.9,1120.3,646.9z"/>
	</g>
	<g>
		<path stroke='#fff' fill='#fff' d="M412.8,899.8H138.2c-1,0-1.8-0.8-1.8-1.8c0-1,0.8-1.8,1.8-1.8h274.6c1,0,1.8,0.8,1.8,1.8
			C414.6,899,413.8,899.8,412.8,899.8z"/>
	</g>
	<g>
		<path stroke='#fff' fill='#fff' d="M1155.2,899.8h-150.1c-1,0-1.8-0.8-1.8-1.8c0-1,0.8-1.8,1.8-1.8h150.1c1,0,1.8,0.8,1.8,1.8
			C1157,899,1156.2,899.8,1155.2,899.8z"/>
	</g>
</g>
</svg>
