<svg version="1.1" xmlns="http://www.w3.org/2000/svg" xmlns:xlink="http://www.w3.org/1999/xlink" x="0px" y="0px" viewBox="0 0 16 16" xml:space="preserve" width="16" height="16"><g class="nc-icon-wrapper" fill="#48545d"><path fill="#48545d" d="M15,3H1C0.448,3,0,2.553,0,2s0.448-1,1-1h14c0.552,0,1,0.447,1,1S15.552,3,15,3z"></path> <path data-color="color-2" fill="#48545d" d="M15,9H1C0.448,9,0,8.553,0,8s0.448-1,1-1h14c0.552,0,1,0.447,1,1S15.552,9,15,9z"></path> <path fill="#48545d" d="M15,15H7c-0.552,0-1-0.447-1-1s0.448-1,1-1h8c0.552,0,1,0.447,1,1S15.552,15,15,15z"></path></g></svg>
