<svg version="1.1" xmlns="http://www.w3.org/2000/svg" xmlns:xlink="http://www.w3.org/1999/xlink" x="0px" y="0px" viewBox="0 0 64 64" xml:space="preserve" width="64" height="64"><g class="nc-icon-wrapper" fill="#fcbf49"><path fill="#fcbf49" d="M62.874,59.514l-30-54c-0.353-0.635-1.396-0.635-1.748,0l-30,54c-0.172,0.31-0.167,0.688,0.012,0.993 C1.318,60.812,1.646,61,2,61h60c0.354,0,0.682-0.188,0.862-0.493C63.042,60.202,63.046,59.824,62.874,59.514z M34.857,24 l-1.429,20.714h-2.857L29.143,24H34.857z M32,55c-1.657,0-3-1.343-3-3s1.343-3,3-3s3,1.343,3,3S33.657,55,32,55z"></path></g></svg>
