<svg version="1.1" xmlns="http://www.w3.org/2000/svg" xmlns:xlink="http://www.w3.org/1999/xlink" x="0px" y="0px" viewBox="0 0 64 64" xml:space="preserve" width="64" height="64"><g class="nc-icon-wrapper" fill="#fcbf49"><path fill="#fcbf49" d="M61,2H49c-0.265,0-0.518,0.104-0.705,0.291L23.263,27.203c-6.089-1.416-12.532,0.408-16.948,4.826 C2.888,35.455,1,40.011,1,44.857c0,4.846,1.888,9.402,5.314,12.829S14.297,63,19.143,63s9.402-1.887,12.829-5.314 c4.419-4.418,6.24-10.867,4.824-16.954l5.918-6.032C42.897,34.513,43,34.262,43,34v-7h7c0.553,0,1-0.448,1-1v-7h6 c0.266,0,0.52-0.105,0.707-0.293l4-4C61.895,14.52,62,14.265,62,14V3C62,2.448,61.553,2,61,2z M16,52c-2.761,0-5-2.239-5-5 s2.239-5,5-5s5,2.239,5,5S18.761,52,16,52z"></path></g></svg>