<svg version="1.1" xmlns="http://www.w3.org/2000/svg" xmlns:xlink="http://www.w3.org/1999/xlink" x="0px" y="0px" viewBox="0 0 32 32" xml:space="preserve" width="32" height="32"><g class="nc-icon-wrapper" fill="#48545d"><line data-color="color-2" fill="none" stroke="#3c90df" stroke-width="2" stroke-linecap="square" stroke-miterlimit="10" x1="13" y1="18" x2="13" y2="25" stroke-linejoin="miter"></line> <line data-color="color-2" fill="none" stroke="#3c90df" stroke-width="2" stroke-linecap="square" stroke-miterlimit="10" x1="17" y1="18" x2="17" y2="25" stroke-linejoin="miter"></line> <line data-color="color-2" fill="none" stroke="#3c90df" stroke-width="2" stroke-linecap="square" stroke-miterlimit="10" x1="21" y1="18" x2="21" y2="25" stroke-linejoin="miter"></line> <line fill="none" stroke="#48545d" stroke-width="2" stroke-linecap="square" stroke-miterlimit="10" x1="8" y1="14" x2="8" y2="19" stroke-linejoin="miter"></line> <path fill="none" stroke="#48545d" stroke-width="2" stroke-linecap="square" stroke-miterlimit="10" d="M24.542,12.689L13,11V3.5 C13,2.119,11.881,1,10.5,1l0,0C9.119,1,8,2.119,8,3.5V14H5c-1.105,0-2,0.895-2,2v6c0,4.25,5.074,6.438,5.074,9h17.727l2.115-13.745 C28.254,15.061,26.739,13.011,24.542,12.689z" stroke-linejoin="miter"></path></g></svg>
