<svg version="1.1" xmlns="http://www.w3.org/2000/svg" xmlns:xlink="http://www.w3.org/1999/xlink" x="0px" y="0px" viewBox="0 0 16 16" xml:space="preserve" width="16" height="16"><g class="nc-icon-wrapper" fill="#2591f6"><path fill="#2591f6" d="M7,0C6.4,0,6,0.4,6,1v1.1C2.6,2.6,0,5.5,0,9c0,3.9,3.1,7,7,7c2,0,3.8-0.8,5-2.2l0.9,0.6 c0.6,0.4,1.2,0,1.4-0.2C15.4,12.7,16,10.9,16,9C16,4,12,0,7,0z M7,14c-2.8,0-5-2.2-5-5c0-2.4,1.7-4.4,4-4.9V9c0,0.3,0.2,0.6,0.4,0.8 l4,2.8C9.5,13.5,8.3,14,7,14z"></path></g></svg>